<svg xmlns="http://www.w3.org/2000/svg" width="640" height="300" viewBox="0 0 640 300"><rect width="100%" height="100%" fill="white"/><text x="10" y="22" font-size="15" font-weight="bold">Zgodność z ground truth na poziomie pól i statusów</text><text x="10" y="48" font-size="13">pola: geometry</text><rect x="170" y="34" width="300.000" height="16" fill="#2f6fed"/><text x="480" y="48" font-size="13">100.0% (n=60)</text><text x="10" y="78" font-size="13">pola: pog</text><rect x="170" y="64" width="300.000" height="16" fill="#2f6fed"/><text x="480" y="78" font-size="13">100.0% (n=39)</text><text x="10" y="108" font-size="13">pola: ouz</text><rect x="170" y="94" width="300.000" height="16" fill="#2f6fed"/><text x="480" y="108" font-size="13">100.0% (n=20)</text><text x="10" y="138" font-size="13">pola: mpzp</text><rect x="170" y="124" width="246.774" height="16" fill="#2f6fed"/><text x="480" y="138" font-size="13">82.3% (n=62)</text><text x="10" y="168" font-size="13">pola: flood</text><rect x="170" y="154" width="297.727" height="16" fill="#2f6fed"/><text x="480" y="168" font-size="13">99.2% (n=132)</text><text x="10" y="198" font-size="13">pola: nature</text><rect x="170" y="184" width="300.000" height="16" fill="#2f6fed"/><text x="480" y="198" font-size="13">100.0% (n=68)</text><text x="10" y="228" font-size="13">pola: terrain</text><rect x="170" y="214" width="297.321" height="16" fill="#2f6fed"/><text x="480" y="228" font-size="13">99.1% (n=112)</text><text x="10" y="258" font-size="13">statusy sekcji</text><rect x="170" y="244" width="297.143" height="16" fill="#2f6fed"/><text x="480" y="258" font-size="13">99.0% (n=210)</text></svg>
