<svg xmlns="http://www.w3.org/2000/svg" width="640" height="320" viewBox="0 0 640 320"><rect width="100%" height="100%" fill="white"/><text x="10" y="24" font-size="15" font-weight="bold">Dokładność end-to-end ze źródłem według formatu</text><rect x="150" y="34" width="10" height="10" fill="#2c6fbb"/><text x="164" y="43" font-size="12">legacy</text><rect x="270" y="34" width="10" height="10" fill="#c0392b"/><text x="284" y="43" font-size="12">v3</text><text x="10" y="74" font-size="12">html</text><rect x="150" y="62" width="260.9" height="14" fill="#2c6fbb"/><text x="416.9" y="73" font-size="11">65%</text><rect x="150" y="80" width="295.7" height="14" fill="#c0392b"/><text x="451.7" y="91" font-size="11">74%</text><text x="10" y="124" font-size="12">ocr_real</text><rect x="150" y="112" width="400.0" height="14" fill="#2c6fbb"/><text x="556.0" y="123" font-size="11">100%</text><rect x="150" y="130" width="400.0" height="14" fill="#c0392b"/><text x="556.0" y="141" font-size="11">100%</text><text x="10" y="174" font-size="12">ocr_simulated</text><rect x="150" y="162" width="121.7" height="14" fill="#2c6fbb"/><text x="277.7" y="173" font-size="11">30%</text><rect x="150" y="180" width="156.5" height="14" fill="#c0392b"/><text x="312.5" y="191" font-size="11">39%</text><text x="10" y="224" font-size="12">pdf_table</text><rect x="150" y="212" width="400.0" height="14" fill="#2c6fbb"/><text x="556.0" y="223" font-size="11">100%</text><rect x="150" y="230" width="400.0" height="14" fill="#c0392b"/><text x="556.0" y="241" font-size="11">100%</text><text x="10" y="274" font-size="12">pdf_text</text><rect x="150" y="262" width="214.6" height="14" fill="#2c6fbb"/><text x="370.6" y="273" font-size="11">54%</text><rect x="150" y="280" width="387.5" height="14" fill="#c0392b"/><text x="543.5" y="291" font-size="11">97%</text></svg>
